<svg width="30" height="30" viewBox="0 0 30 30" fill="none" xmlns="http://www.w3.org/2000/svg">
<path fill-rule="evenodd" clip-rule="evenodd" d="M30 15C30 6.71371 23.2863 0 15 0C6.71371 0 0 6.71371 0 15C0 23.2863 6.71371 30 15 30C23.2863 30 30 23.2863 30 15ZM17.8182 13.0644L13.2517 8.68537C12.665 8.12287 12.6529 7.18537 13.2275 6.60473L13.8928 5.94545C14.4553 5.37691 15.3747 5.37691 15.9432 5.94545L23.9694 13.9777C24.538 14.5402 24.538 15.4596 23.9694 16.0281L15.9432 24.0483C15.3807 24.6168 14.4614 24.6168 13.8928 24.0483L13.2275 23.389C12.6529 22.8144 12.665 21.8769 13.2517 21.3144L17.8182 16.9354H6.77388C5.96944 16.9354 5.32227 16.2882 5.32227 15.4838V14.516C5.32227 13.7116 5.96944 13.0644 6.77388 13.0644H17.8182Z" fill="#FEBB3A"/>
</svg>
