<svg width="15" height="14" viewBox="0 0 15 14" fill="none" xmlns="http://www.w3.org/2000/svg">
<path fill-rule="evenodd" clip-rule="evenodd" d="M0.0410156 7C0.0410156 3.13306 3.3022 0 7.32726 0C11.3523 0 14.6135 3.13306 14.6135 7C14.6135 10.8669 11.3523 14 7.32726 14C3.3022 14 0.0410156 10.8669 0.0410156 7ZM9.45664 9.54034L10.0442 8.83469C10.1223 8.74118 10.1584 8.6217 10.1447 8.50259C10.1309 8.38347 10.0685 8.27448 9.97108 8.19961L8.26704 7.00002V2.9355C8.26704 2.68608 8.05658 2.48389 7.79696 2.48389H6.8568C6.59718 2.48389 6.38672 2.68608 6.38672 2.9355V7.32602C6.38667 7.6689 6.54882 7.99322 6.82742 8.20752L8.79588 9.6109C8.89324 9.68573 9.01755 9.72033 9.14147 9.7071C9.26539 9.69387 9.37876 9.63388 9.45664 9.54034Z" fill="#9EB2BD"/>
</svg>
