<svg width="274" height="30" viewBox="0 0 274 30" fill="none" xmlns="http://www.w3.org/2000/svg">
<path fill-rule="evenodd" clip-rule="evenodd" d="M267.468 10C270.801 10 273.503 12.7018 273.503 16.0345L273.501 23.2164C273.501 26.5492 270.799 29.2509 267.466 29.2509H252.035C248.702 29.2509 246 26.5492 246 23.2164V16.0345C246 12.7018 248.702 10 252.035 10H267.468ZM257.508 23.5864L264.427 20.1627H264.425C264.706 20.0109 264.412 19.6091 264.139 19.45L257.515 15.8464C257.244 15.6918 256.314 15.8882 256.314 16.2009V23.2282C256.314 23.5364 257.235 23.7336 257.508 23.5864Z" fill="#172933"/>
<path d="M273.503 16.0345L274.003 16.0347V16.0345H273.503ZM273.501 23.2164L273.001 23.2162V23.2164H273.501ZM264.427 20.1627L264.649 20.6109L264.427 19.6627V20.1627ZM257.508 23.5864L257.286 23.1382L257.278 23.1422L257.271 23.1464L257.508 23.5864ZM264.425 20.1627L264.188 19.7229L264.425 20.6627V20.1627ZM264.139 19.45L264.391 19.0181L264.384 19.0144L264.378 19.0108L264.139 19.45ZM257.515 15.8464L257.268 16.2811L257.276 16.2856L257.515 15.8464ZM274.003 16.0345C274.003 12.4256 271.077 9.5 267.468 9.5V10.5C270.525 10.5 273.003 12.9779 273.003 16.0345H274.003ZM274.001 23.2165L274.003 16.0347L273.003 16.0344L273.001 23.2162L274.001 23.2165ZM267.466 29.7509C271.075 29.7509 274.001 26.8253 274.001 23.2164H273.001C273.001 26.273 270.523 28.7509 267.466 28.7509V29.7509ZM252.035 29.7509H267.466V28.7509H252.035V29.7509ZM245.5 23.2164C245.5 26.8253 248.426 29.7509 252.035 29.7509V28.7509C248.978 28.7509 246.5 26.273 246.5 23.2164H245.5ZM245.5 16.0345V23.2164H246.5V16.0345H245.5ZM252.035 9.5C248.426 9.5 245.5 12.4256 245.5 16.0345H246.5C246.5 12.9779 248.978 10.5 252.035 10.5V9.5ZM267.468 9.5H252.035V10.5H267.468V9.5ZM264.205 19.7146L257.286 23.1382L257.73 24.0345L264.649 20.6109L264.205 19.7146ZM264.425 20.6627H264.427V19.6627H264.425V20.6627ZM263.887 19.8819C263.913 19.8969 263.948 19.9234 263.982 19.9583C264.017 19.9938 264.038 20.0242 264.046 20.0402C264.058 20.0633 264.032 20.0268 264.041 19.9481C264.047 19.9033 264.064 19.8526 264.097 19.806C264.129 19.7604 264.165 19.7349 264.188 19.7229L264.663 20.6026C264.864 20.4939 265.005 20.3057 265.034 20.0712C265.059 19.8695 264.994 19.6942 264.933 19.578C264.812 19.3448 264.598 19.139 264.391 19.0181L263.887 19.8819ZM257.276 16.2856L263.9 19.8892L264.378 19.0108L257.754 15.4072L257.276 16.2856ZM256.814 16.2009C256.814 16.2925 256.779 16.3571 256.757 16.3872C256.737 16.414 256.724 16.4192 256.738 16.4098C256.768 16.3903 256.836 16.359 256.938 16.3325C257.036 16.3071 257.138 16.2936 257.219 16.2925C257.26 16.292 257.287 16.2947 257.301 16.2972C257.319 16.3003 257.302 16.3003 257.268 16.281L257.762 15.4117C257.575 15.3053 257.355 15.2908 257.207 15.2926C257.037 15.2947 256.856 15.3209 256.688 15.3643C256.524 15.4067 256.343 15.4734 256.189 15.5739C256.059 15.6592 255.814 15.8607 255.814 16.2009H256.814ZM256.814 23.2282V16.2009H255.814V23.2282H256.814ZM257.271 23.1464C257.304 23.1286 257.319 23.129 257.301 23.132C257.285 23.1344 257.257 23.1368 257.217 23.136C257.135 23.1343 257.034 23.1202 256.936 23.0945C256.834 23.0677 256.767 23.0364 256.737 23.017C256.723 23.0077 256.736 23.013 256.756 23.0398C256.778 23.07 256.814 23.1353 256.814 23.2282H255.814C255.814 23.568 256.06 23.7686 256.188 23.8527C256.34 23.9524 256.52 24.019 256.682 24.0617C256.849 24.1054 257.028 24.1323 257.196 24.1358C257.343 24.1388 257.56 24.1265 257.746 24.0263L257.271 23.1464Z" fill="#072D4F" fill-opacity="0.01"/>
</svg>
